<?xml version="1.0" encoding="UTF-8"?> <svg xmlns="http://www.w3.org/2000/svg" width="180" height="180" viewBox="0 0 180 180" fill="none"><path fill-rule="evenodd" clip-rule="evenodd" d="M131.714 142.831C131.534 146.648 131.359 150.418 131.714 153.28C131.934 155.05 131.991 156.119 131.027 157.433C130.135 158.648 129.709 159.077 128.239 159.71C126.177 160.598 124.157 161.646 122.357 162.389C118.012 164.184 112.219 161.888 107.12 161.854C102.475 161.822 97.5918 162.639 93.2182 161.586C90.3005 160.883 87.0499 158.98 80.7688 154.218C77.2801 151.573 73.5896 146.63 66.7524 143.903C63.3592 142.55 60.3626 143.867 54.9899 139.08C50.7535 135.306 49.73 121.605 47.3352 113.208C45.0064 105.042 35.3281 104.511 33.8706 96.7491C33.4194 94.3465 34.2679 89.8697 35.8539 85.6406C37.0679 80.7023 37.3339 77.7199 36.05 73.3374C35.2122 70.4778 35.7311 63.013 38.9602 60.5643C39.1558 60.416 37.0574 68.4036 42.1615 73.5432C42.3906 73.7742 39.1745 64.3496 46.2357 53.9267C47.6121 51.8948 53.7496 45.3129 51.1827 28.3099C51.1557 28.13 57.2228 33.896 55.8392 47.7666C55.51 51.0658 49.2877 63.6123 57.0031 67.2298C64.7185 70.8472 63.2878 65.4911 62.8233 63.9435C62.3593 62.3954 56.5654 49.0759 58.1674 39.2829C58.6538 36.3072 61.1586 29.5732 64.8606 26.5273C68.5623 23.4816 72.116 17.2852 71.2627 11.4357C71.0278 9.82412 74.345 19.0496 72.4267 25.695C70.5087 32.3404 65.7535 35.5945 67.7705 44.6865C69.0814 50.5938 72.187 59.7079 75.046 59.7299C77.9051 59.7524 77.9442 56.5938 77.6651 55.6059C77.386 54.6184 73.8946 47.648 77.3743 40.8391C79.7217 36.2451 82.5768 33.1256 84.0675 31.8417C87.0235 29.2958 89.3348 24.2633 87.5597 19.9831C87.4213 19.6498 93.5342 25.0445 89.5968 34.024C87.9437 37.794 87.9348 41.8579 90.1788 45.0564C94.5144 51.2368 93.2872 55.2472 92.7978 58.5665C92.3084 61.8862 95.3131 59.8975 95.4169 59.0679C95.521 58.2383 96.7682 55.0577 96.29 52.2006C95.8119 49.3437 88.9407 42.668 95.4169 32.4721C95.8434 31.801 93.7742 38.9523 97.7451 43.6459C101.716 48.3398 105.388 50.4345 107.64 58.613C107.746 59.0001 112.175 50.2643 110.841 41.8162C109.275 31.9091 98.5165 23.2324 106.767 13.7339C107.46 12.9356 105.683 22.9152 113.169 28.1289C116.174 30.2215 123.225 42.0494 119 59.5452C118.159 63.0258 123.81 68.6135 123.645 65.6913C123.132 56.5491 118.203 39.7677 125.682 35.5027C125.753 35.4626 120.794 42.4611 127.719 55.3254C131.263 61.9087 136.364 71.5531 135.286 79.9324C134.978 82.3238 134.543 84.6892 133.874 86.9269C134.224 88.9877 134.549 91.3217 134.852 93.749C134.366 96.5363 133.769 99.5409 132.412 100.407C125.441 104.86 118.021 100.859 118.62 105.193C119.492 111.511 124.279 116.495 130.616 116.207C133.101 116.095 135.364 115.193 137.181 113.758C137.27 114.299 137.357 114.752 137.443 115.102C140.166 126.211 132.072 135.23 131.714 142.831ZM109.18 105.424C108.509 101.101 102.551 107.071 94.596 104.816C91.3558 103.898 88.4842 92.0526 86.7532 93.6799C85.2237 95.118 86.1728 108.139 86.9012 111.041C88.4534 117.225 94.699 120.982 100.851 119.431C107.003 117.88 110.157 111.726 109.18 105.424ZM127.08 131.952C126.974 129.612 125.561 129.823 123.134 127.94C121.368 126.569 117.305 114.16 116.091 114.215C114.623 114.282 115.386 126.119 113.952 128.357C112.571 130.511 110.333 131.564 110.423 133.547C110.606 137.59 116.287 137.473 119.168 137.342C122.05 137.211 127.263 135.995 127.08 131.952Z" fill="white"></path></svg> 