<svg width="187" height="38" viewBox="0 0 187 38" fill="none" xmlns="http://www.w3.org/2000/svg">
<g clip-path="url(#clip0_4_4590)">
<path fill-rule="evenodd" clip-rule="evenodd" d="M35.9263 6.23511V31.0092H39.7494V14.9694L44.0663 19.8019L48.3788 14.9694V31.0092H52.2064V6.23511L44.0663 15.0218L35.9263 6.23511Z" fill="#FFE500"/>
<path fill-rule="evenodd" clip-rule="evenodd" d="M78.8767 18.8712V9.91404C81.0046 9.91404 84.666 10.399 84.666 14.4712C84.666 18.5435 80.8429 18.8712 78.8767 18.8712ZM89.4592 30.9829L82.713 22.0782C83.9495 21.7768 88.061 20.431 88.061 14.397C88.061 8.36293 84.2597 6.69385 78.8723 6.69385H72.8164L75.0492 9.64751V18.893H72.6111L75.0492 22.0782V30.9917H78.8898V23.2536L84.6573 30.9917H81.7473L92.7668 37.9782L87.4668 30.9873H89.4592V30.9829Z" fill="#FFE500"/>
<path fill-rule="evenodd" clip-rule="evenodd" d="M100.632 6.72449L96.1138 14.8776V6.72449H92.2906V15.6991H89.8481L92.2906 18.8625V31.0048L96.1138 30.9961V18.9062H100.903V31.0048H104.726V15.6816H99.8364L105.115 6.72449H100.632Z" fill="#FFE500"/>
<path fill-rule="evenodd" clip-rule="evenodd" d="M121.949 9.91841L119.511 6.7157H106.919L109.152 9.66499V15.7252H106.919L109.152 18.9017V31.0091H121.609V27.8064H112.997L113.014 18.9105L118.122 18.893L120.499 15.7252H112.997V9.91841H121.949Z" fill="#FFE500"/>
<path fill-rule="evenodd" clip-rule="evenodd" d="M125.108 9.91841H128.744V31.0091H132.571L132.606 9.97084L137.238 9.91841L139.61 6.7157H122.67L125.108 9.91841Z" fill="#FFE500"/>
<path fill-rule="evenodd" clip-rule="evenodd" d="M60.6524 23.2666C60.6524 23.2666 63.0031 14.4886 62.99 14.4886C63.0075 14.4886 65.5591 23.2666 65.5591 23.2666H60.6524ZM54.0591 31.0047H58.6556L60.0756 26.2727H66.149L67.5384 31.0047H72.1874L62.9856 6.13013L54.0591 31.0047Z" fill="#FFE500"/>
<path fill-rule="evenodd" clip-rule="evenodd" d="M159.757 23.2666C159.757 23.2666 162.108 14.4886 162.095 14.4886C162.112 14.4886 164.664 23.2666 164.664 23.2666H159.757ZM153.164 31.0047H157.761L159.181 26.2727H165.254L166.643 31.0047H171.292L162.095 6.13013L153.168 31.0047H153.164Z" fill="#FFE500"/>
<path fill-rule="evenodd" clip-rule="evenodd" d="M152.168 27.7452L145.439 27.7976V6.70691L141.616 6.71565V31.0003H147.243L144.202 37.9345L154.077 32.3155L150.306 32.3461L150.839 31.0003L152.168 27.7452Z" fill="#FFE500"/>
<path fill-rule="evenodd" clip-rule="evenodd" d="M177.457 27.8021V18.845C179.502 18.845 183.312 18.8624 183.312 23.3148C183.312 27.7671 179.498 27.7977 177.457 27.7977V27.8021ZM177.471 9.61258C177.471 9.61258 178.27 9.61258 178.318 9.61258C179.826 9.61258 181.045 10.8797 181.045 12.4439C181.045 14.0081 179.821 15.2709 178.318 15.2709H177.471V9.62132V9.61258ZM182.801 16.6647C183.644 15.8607 184.3 14.4844 184.3 12.3653C184.3 9.06205 182.74 6.72009 177.449 6.72009H173.608V15.6859H171.402L173.63 18.9149V27.4656C173.63 27.4656 173.63 27.4656 173.639 27.4656V31.0135H177.462C182.993 31.0135 187 29.3663 187 23.3323C187 19.745 185.196 17.722 182.801 16.6734V16.6647Z" fill="#FFE500"/>
<path fill-rule="evenodd" clip-rule="evenodd" d="M23.5654 30.0435C23.5654 30.0435 23.0542 29.7813 22.4556 29.3182C22.0187 28.9774 21.0181 25.9145 20.721 25.9276C20.3583 25.9451 20.5462 28.8682 20.1923 29.4231C19.8515 29.9561 19.0169 30.5285 19.0169 30.5285C19.0606 31.5291 20.769 31.6776 21.4769 31.6427C22.1847 31.6121 23.6091 31.0441 23.561 30.0479L23.5654 30.0435ZM19.0213 23.7517C18.8553 22.6812 17.3872 24.158 15.4297 23.6031C14.6301 23.3759 13.4985 20.8505 13.4985 20.8505C13.3936 20.7587 13.3543 24.4246 13.5334 25.1411C13.9179 26.6704 15.4559 27.5967 16.9677 27.2166C18.4839 26.8321 19.2616 25.3115 19.0169 23.7561L19.0213 23.7517ZM24.5703 32.9972C24.5266 33.9409 24.483 34.8716 24.5703 35.5794C24.6228 36.0164 24.6402 36.2829 24.3999 36.6062C24.1815 36.9077 24.0766 37.0126 23.714 37.1699C23.2071 37.3883 22.709 37.6461 22.2633 37.834C21.1929 38.2753 19.7685 37.7117 18.5101 37.7029C17.3653 37.6942 16.1638 37.8952 15.0845 37.6374C14.368 37.4626 13.564 36.9951 12.0173 35.8154C11.1565 35.16 9.16848 33.0015 9.16848 33.0015C8.33393 32.6651 6.83089 32.3418 5.50698 31.1577C4.46272 30.227 4.72487 25.329 3.40097 24.2367C3.40097 24.2367 1.69693 23.6818 1.18135 21.5714C0.665774 19.461 1.47847 19.0547 1.47847 18.0585C1.47847 17.0623 1.51342 17.0972 1.00658 15.8257C0.504109 14.5543 1.69693 12.5837 1.69693 12.5837C1.69693 14.729 2.73246 15.9874 2.73246 15.9874C2.029 12.5837 2.21688 12.4876 3.47088 10.2942C4.72487 8.10077 4.10006 3.00614 4.10006 3.00614C4.09132 2.96244 5.87838 5.18206 5.50698 9.25427C5.13559 13.3265 7.91011 14.2135 7.91011 14.2135C7.79651 13.829 6.28035 12.0637 6.42891 9.62566C6.57747 7.18758 7.39016 5.91611 8.64853 4.85436C9.90689 3.79262 10.1909 1.48998 9.98117 0.0437366C9.92437 -0.353872 11.4536 2.65659 10.9817 4.29946C10.5099 5.94232 8.74465 6.59772 9.24275 8.84355C9.56608 10.3029 10.5492 11.4433 11.2526 11.452C11.1827 11.2074 10.322 9.48584 11.1827 7.80365C11.7595 6.66763 12.4629 5.89863 12.83 5.57967C13.5596 4.95049 14.1277 3.70523 13.6907 2.64785C13.6558 2.56484 15.1632 3.89748 14.1932 6.1171C13.7868 7.04776 13.7825 8.05271 14.3374 8.84355C15.4035 10.3728 15.102 11.3603 14.984 12.1817C14.984 12.1817 16.6444 10.7442 16.0239 9.62566C15.3292 8.37167 14.4291 7.82113 16.0239 5.3044C16.1288 5.13837 15.6045 7.07398 16.5788 8.23185C17.5576 9.38972 18.0819 10.1718 18.6368 12.1948C18.663 12.2909 20.0088 9.00959 18.6368 7.07835C17.2648 5.14274 16.3123 2.94934 18.3441 0.60301C17.9377 3.52609 19.751 3.596 20.4894 4.45238C21.2278 5.30877 22.2721 5.98165 21.6735 9.29796C21.3152 11.2947 23.1154 13.0731 23.1154 13.0731C23.1154 13.0731 21.337 8.84792 23.8931 6.33993C23.8931 6.33993 22.5342 8.65567 24.3956 11.4564C25.2694 13.0818 25.7107 15.3975 25.4442 17.4686C25.3699 18.0585 25.2607 18.6439 25.0947 19.1988C25.182 19.7101 25.2607 20.2868 25.335 20.8854C25.217 21.5758 25.0684 22.3185 24.732 22.5326C23.0149 23.6337 21.1885 22.6462 21.3327 23.7167C21.5468 25.2766 22.7265 26.5087 24.2863 26.4388C24.898 26.4126 25.4573 26.1898 25.903 25.8315C25.9248 25.9669 25.9467 26.0762 25.9685 26.1636C26.637 28.9075 24.6446 31.1358 24.5572 33.0146L24.5703 32.9972Z" fill="#FFE500"/>
</g>
<defs>
<clipPath id="clip0_4_4590">
<rect width="186.116" height="38" fill="white" transform="translate(0.884277)"/>
</clipPath>
</defs>
</svg>
